{
	"accessors": [
		{
			"bufferView": 2,
			"componentType": 5126,
			"count": 3589,
			"max": [16.03933334350586, 1.2078005075454712, 58.932044982910156],
			"min": [-17.139944076538086, -9.675938606262207, -29.87389373779297],
			"type": "VEC3"
		},
		{
			"bufferView": 2,
			"byteOffset": 43068,
			"componentType": 5126,
			"count": 3589,
			"max": [1.0, 1.0, 1.0],
			"min": [-1.0, -1.0, -1.0],
			"type": "VEC3"
		},
		{
			"bufferView": 3,
			"componentType": 5126,
			"count": 3589,
			"max": [1.0, 1.0, 1.0, 1.0],
			"min": [-1.0, -1.0, -1.0, -1.0],
			"type": "VEC4"
		},
		{
			"bufferView": 1,
			"componentType": 5126,
			"count": 3589,
			"max": [0.9974588751792908, 0.9975351095199585],
			"min": [0.0016745354514569044, 0.0018443657318130136],
			"type": "VEC2"
		},
		{
			"bufferView": 0,
			"componentType": 5125,
			"count": 9537,
			"type": "SCALAR"
		}
	],
	"asset": {
		"extras": {
			"author": "Pixel (https://sketchfab.com/stefan.lengyel1)",
			"license": "CC-BY-4.0 (http://creativecommons.org/licenses/by/4.0/)",
			"source": "https://sketchfab.com/3d-models/low-poly-guitar-757b3b5aaf6d4052933edc329c4f5aa5",
			"title": "Low Poly Guitar."
		},
		"generator": "Sketchfab-12.64.0",
		"version": "2.0"
	},
	"bufferViews": [
		{
			"buffer": 0,
			"byteLength": 38148,
			"name": "floatBufferViews",
			"target": 34963
		},
		{
			"buffer": 0,
			"byteLength": 28712,
			"byteOffset": 38148,
			"byteStride": 8,
			"name": "floatBufferViews",
			"target": 34962
		},
		{
			"buffer": 0,
			"byteLength": 86136,
			"byteOffset": 66860,
			"byteStride": 12,
			"name": "floatBufferViews",
			"target": 34962
		},
		{
			"buffer": 0,
			"byteLength": 57424,
			"byteOffset": 152996,
			"byteStride": 16,
			"name": "floatBufferViews",
			"target": 34962
		}
	],
	"buffers": [
		{
			"byteLength": 210420,
			"uri": "scene.bin"
		}
	],
	"meshes": [
		{
			"name": "Line001_Material #295_0",
			"primitives": [
				{
					"attributes": {
						"NORMAL": 1,
						"POSITION": 0
					},
					"indices": 4,
					"mode": 4
				}
			]
		}
	],
	"nodes": [
		{
			"children": [1],
			"matrix": [
				-0.3254493772983551, 0.6682109832763671, 0.6690118312835694, 0.0, 0.2887303829193115,
				-0.6035094857215882, 0.743243634700775, 0.0, 0.9003984928131104, 0.43505221605300903,
				0.003478970611468054, 0.0, 0.0029899654909968376, -0.0015235228929668663,
				-0.0014424902619794015, 1.0
			],
			"name": "Sketchfab_model"
		},
		{
			"children": [2],
			"matrix": [1.0, 0.0, 0.0, 0.0, 0.0, 0.0, 1.0, 0.0, 0.0, -1.0, 0.0, 0.0, 0.0, 0.0, 0.0, 1.0],
			"name": "Gitara.FBX"
		},
		{
			"children": [3],
			"name": "RootNode"
		},
		{
			"children": [4],
			"matrix": [
				1.0, 0.0, 0.0, 0.0, 0.0, 2.220446049250313e-16, -1.0, 0.0, 0.0, 1.0, 2.220446049250313e-16,
				0.0, 0.002169311046600342, 0.0, 0.0, 1.0
			],
			"name": "Line001"
		},
		{
			"children": [5],
			"matrix": [
				1.0, 0.0, -0.0, 0.0, 0.0, 1.0, 0.0, 0.0, 0.0, 0.0, 1.0, 0.0, 0.5503053665161133,
				4.234068870544434, -14.529075622558594, 1.0
			],
			"name": "Object_4"
		},
		{
			"mesh": 0,
			"name": "Line001_Material #295_0"
		}
	],
	"scene": 0,
	"scenes": [
		{
			"name": "Sketchfab_Scene",
			"nodes": [0]
		}
	]
}
