<?xml version="1.0" standalone="no"?>
<!DOCTYPE svg PUBLIC "-//W3C//DTD SVG 20010904//EN"
 "http://www.w3.org/TR/2001/REC-SVG-20010904/DTD/svg10.dtd">
<svg version="1.0" xmlns="http://www.w3.org/2000/svg"
 width="700.000000pt" height="700.000000pt" viewBox="0 0 700.000000 700.000000"
 preserveAspectRatio="xMidYMid meet">
<metadata>
Created by potrace 1.14, written by Peter Selinger 2001-2017
</metadata>
<g transform="translate(0.000000,700.000000) scale(0.100000,-0.100000)"
fill="#000000" stroke="none">
<path d="M2920 6775 l0 -75 -145 0 -145 0 0 -70 0 -70 -220 0 -220 0 0 -75 0
-75 -290 0 -290 0 0 -75 0 -75 -75 0 -76 0 3 -142 3 -143 73 -3 72 -3 0 146 0
145 145 0 145 0 0 -70 0 -70 -70 0 -70 0 0 -70 0 -69 -72 -3 -73 -3 -3 -147
-3 -148 71 0 70 0 0 -70 0 -70 -70 0 -70 0 0 -220 0 -220 -75 0 -75 0 0 -290
0 -290 75 0 75 0 0 -290 0 -289 67 -3 68 -3 3 -217 2 -218 -70 0 -70 0 0 -510
0 -510 70 0 69 0 3 -72 3 -73 73 -3 72 -3 0 -144 0 -145 75 0 75 0 0 -215 0
-215 70 0 70 0 0 -365 0 -365 -145 0 -145 0 0 -72 0 -73 -72 0 -73 0 -3 -72
-3 -73 -214 0 -215 0 0 -75 0 -75 -220 0 -220 0 0 -70 0 -70 -434 0 c-288 0
-437 -3 -441 -10 -4 -6 -3 -71 1 -145 l7 -135 2468 0 2468 0 3 73 3 72 73 3
72 3 0 215 0 215 148 -3 147 -3 3 -148 3 -147 -76 0 -75 0 0 -138 0 -139 867
-6 c477 -4 871 -3 876 2 4 4 7 37 5 72 l-3 64 -292 3 -293 2 0 75 0 75 -145 0
-145 0 0 70 0 70 -145 0 -145 0 0 75 0 75 -75 0 -75 0 0 75 0 75 -145 0 -145
0 0 70 0 70 -145 0 -145 0 0 70 0 70 -70 0 -70 0 0 150 0 150 70 0 70 0 0 215
0 215 75 0 75 0 0 290 0 290 145 0 144 0 3 147 3 148 67 3 68 3 2 722 3 722
73 3 72 3 0 509 0 509 -72 3 -73 3 -3 143 -3 142 -69 0 -70 0 0 220 0 220 -75
0 -75 0 0 70 0 70 -70 0 -70 0 0 75 0 75 -75 0 -75 0 0 70 0 70 -145 0 -145 0
0 75 0 75 -145 0 -144 0 -3 73 -3 72 -217 3 -218 2 0 70 0 70 -435 0 -435 0 0
75 0 75 -145 0 -145 0 0 -75z m1165 -359 c4 -74 4 -139 0 -145 -3 -6 -39 -11
-81 -11 l-74 0 0 145 0 145 74 0 74 0 7 -134z m295 -74 l0 -69 98 -6 c53 -4
118 -7 145 -7 l47 0 0 -70 0 -70 70 0 70 0 0 -75 0 -75 68 0 69 0 6 -107 c4
-58 7 -123 7 -145 l0 -38 -75 0 -75 0 0 75 0 75 -75 0 -75 0 0 70 0 70 -70 0
-70 0 0 75 0 75 -145 0 -145 0 0 145 0 145 75 0 75 0 0 -68z m-732 -584 l3
-67 72 -3 72 -3 3 -54 c2 -30 1 -65 -3 -78 -5 -23 -9 -24 -78 -21 l-72 3 -3
73 -3 72 -69 0 -70 0 0 75 0 76 73 -3 72 -3 3 -67z m1095 -518 l67 0 0 -70 0
-70 70 0 70 0 0 -75 0 -75 -140 0 -140 0 0 -140 0 -140 70 0 70 0 0 -365 0
-365 -183 0 c-101 0 -232 -3 -290 -7 l-107 -6 0 -69 0 -68 -75 0 -75 0 0 70 0
70 -140 0 -140 0 0 -70 0 -70 -75 0 -75 0 0 -510 0 -510 75 0 76 0 -3 -72 -3
-73 -72 -3 -73 -3 0 -69 0 -70 -150 0 -150 0 0 655 0 654 -72 3 -73 3 -3 68
-3 67 -64 0 -64 0 -3 -67 -3 -68 -72 -3 -73 -3 0 69 0 69 -240 7 c-132 4 -296
4 -365 0 l-125 -7 0 511 0 511 73 3 72 3 3 73 3 72 869 0 870 0 0 70 0 69 148
3 c81 2 215 2 297 1 83 -1 180 -3 218 -3z m-2263 -1670 l0 -70 75 0 75 0 0
-75 0 -75 -70 0 -70 0 0 -70 0 -70 140 0 140 0 0 70 0 69 73 3 72 3 3 143 3
142 75 0 76 0 -4 -142 -3 -143 73 -3 72 -3 0 -219 0 -220 -70 0 -70 0 0 -145
0 -145 -75 0 -75 0 0 -65 0 -65 75 0 75 0 0 -75 0 -75 215 0 215 0 0 -75 0
-75 150 0 150 0 0 -145 0 -145 -300 0 -300 0 0 70 0 70 -215 0 -215 0 0 75 0
75 -145 0 -145 0 0 145 0 145 -75 0 -75 0 0 70 0 70 -70 0 -70 0 0 145 0 145
-75 0 -75 0 2 223 3 222 145 0 145 0 3 143 3 142 69 0 70 0 0 -70z m1750 0 l0
-70 70 0 70 0 0 -150 0 -150 -70 0 -70 0 0 75 0 74 -72 3 -73 3 -3 143 -3 142
76 0 75 0 0 -70z m580 -76 l0 -146 150 7 150 8 0 -152 0 -151 -75 0 -75 0 -2
-217 -3 -218 -72 -3 -73 -3 0 -69 0 -70 -71 0 -70 0 1 -72 c1 -40 1 -139 1
-220 l-1 -148 -75 0 -75 0 0 -75 0 -75 -75 0 -75 0 0 75 0 75 -75 0 -75 0 0
75 0 75 -145 0 -146 0 3 73 3 72 73 3 72 3 -2 364 -3 365 217 0 216 0 7 140 8
140 67 0 68 0 7 145 7 145 69 0 69 0 0 -146z m-578 -1816 l-4 -78 -69 0 -69 0
0 -70 0 -70 -75 0 -75 0 0 -222 0 -223 -70 3 -70 4 0 -71 0 -71 -80 0 -80 0 0
70 0 70 -140 0 -140 0 0 -70 0 -70 -80 0 -80 0 0 71 0 71 -70 -4 -70 -3 0 223
0 222 -75 0 -75 0 0 143 c0 79 2 146 4 148 2 2 301 4 663 4 l658 0 -3 -77z"/>
<path d="M4670 3280 l0 -70 70 0 70 0 0 70 0 70 -70 0 -70 0 0 -70z"/>
</g>
</svg>
